<svg width="29" height="28" viewBox="0 0 29 28" fill="none" xmlns="http://www.w3.org/2000/svg">
<path d="M23.3667 24.5L16.0167 17.15C15.4333 17.6167 14.7625 17.9861 14.0042 18.2583C13.2458 18.5306 12.4389 18.6667 11.5833 18.6667C9.46389 18.6667 7.67033 17.9324 6.20267 16.464C4.735 14.9956 4.00078 13.202 4 11.0833C3.99922 8.96467 4.73344 7.17111 6.20267 5.70267C7.67189 4.23422 9.46544 3.5 11.5833 3.5C13.7012 3.5 15.4952 4.23422 16.9652 5.70267C18.4352 7.17111 19.169 8.96467 19.1667 11.0833C19.1667 11.9389 19.0306 12.7458 18.7583 13.5042C18.4861 14.2625 18.1167 14.9333 17.65 15.5167L25 22.8667L23.3667 24.5ZM11.5833 16.3333C13.0417 16.3333 14.2814 15.8231 15.3027 14.8027C16.3239 13.7822 16.8341 12.5424 16.8333 11.0833C16.8326 9.62422 16.3223 8.38483 15.3027 7.36517C14.283 6.3455 13.0432 5.83489 11.5833 5.83333C10.1234 5.83178 8.88406 6.34239 7.86517 7.36517C6.84628 8.38794 6.33567 9.62733 6.33333 11.0833C6.331 12.5393 6.84161 13.7791 7.86517 14.8027C8.88872 15.8262 10.1281 16.3364 11.5833 16.3333Z" fill="#FFEAFF"/>
</svg>
