<svg width="28" height="28" viewBox="0 0 28 28" fill="none" xmlns="http://www.w3.org/2000/svg">
<g clip-path="url(#clip0_13_8)">
<path d="M27.6156 19.6344C28.1282 20.147 28.1282 20.978 27.6156 21.4905L23.2406 25.8647C22.4197 26.6855 21 26.1102 21 24.9366V22.75H17.7852C17.6952 22.75 17.6062 22.7315 17.5236 22.6956C17.4411 22.6598 17.3668 22.6073 17.3054 22.5415L13.4469 18.4074L16.3635 15.2824L19.25 18.375H21V16.1885C21 15.0161 22.4188 14.4386 23.2406 15.2604L27.6156 19.6344ZM0.65625 9.625H5.25L8.13646 12.7176L11.0531 9.59262L7.19458 5.45847C7.13317 5.39268 7.0589 5.34022 6.97636 5.30436C6.89383 5.2685 6.8048 5.24999 6.7148 5.25H0.65625C0.293836 5.25 0 5.54383 0 5.90625V8.96875C0 9.33116 0.293836 9.625 0.65625 9.625ZM21 9.625V11.8116C21 12.9852 22.4197 13.5605 23.2406 12.7397L27.6156 8.3656C28.1282 7.85301 28.1282 7.02198 27.6156 6.50945L23.2406 2.13549C22.4188 1.31365 21 1.8912 21 3.06354V5.25H17.7852C17.6952 5.24999 17.6062 5.2685 17.5236 5.30436C17.4411 5.34022 17.3668 5.39268 17.3054 5.45847L5.25 18.375H0.65625C0.293836 18.375 0 18.6688 0 19.0312V22.0937C0 22.4562 0.293836 22.75 0.65625 22.75H6.7148C6.8967 22.75 7.07044 22.6745 7.19458 22.5415L19.25 9.625H21Z" fill="#FFEAFF"/>
</g>
<defs>
<clipPath id="clip0_13_8">
<rect width="28" height="28" fill="white"/>
</clipPath>
</defs>
</svg>
