<svg width="40" height="36" viewBox="0 0 40 36" fill="none" xmlns="http://www.w3.org/2000/svg">
<path d="M28.6308 7.37891e-05H10.5162C7.73912 -0.00515091 5.0731 1.09039 3.10204 3.04676C1.13098 5.00314 0.0155388 7.6609 0 10.438V24.7926C0.0103702 27.5731 1.12353 30.2358 3.09515 32.1964C5.06677 34.1571 7.73574 35.2553 10.5162 35.2501H28.6308C31.4132 35.2553 34.0842 34.1577 36.0589 32.1976C38.0336 30.2376 39.1511 27.5749 39.1667 24.7926V10.438C39.1511 7.6575 38.033 4.99677 36.0577 3.03983C34.0824 1.0829 31.4114 -0.0103448 28.6308 7.37891e-05ZM17.5858 18.7609C17.6223 19.7524 17.3852 20.7348 16.9004 21.6005C16.4343 22.3816 15.7549 23.0134 14.9421 23.4217C14.0806 23.8558 13.1256 24.071 12.1613 24.0484C11.0802 24.0739 10.012 23.8103 9.06708 23.2847C8.16724 22.7651 7.44409 21.9874 6.99125 21.0522C6.46696 19.9871 6.20508 18.812 6.2275 17.6251C6.2275 16.6988 6.38025 15.7803 6.67792 14.903C6.95617 14.1708 7.38289 13.504 7.93125 12.9447C8.48098 12.3797 9.15008 11.9448 9.88958 11.6717C11.2631 11.1406 12.7778 11.0991 14.1783 11.5542C14.7639 11.7501 15.3142 12.0419 15.8037 12.4159C16.7582 13.1703 17.383 14.2654 17.5467 15.4709H14.8442C14.7499 15.0572 14.5454 14.6767 14.2523 14.3698C13.9592 14.0629 13.5885 13.8412 13.1796 13.728C12.868 13.6807 12.5511 13.6807 12.2396 13.728C11.6308 13.7002 11.0287 13.865 10.5189 14.199C10.0091 14.533 9.61761 15.0191 9.4 15.5884C9.10569 16.288 8.96542 17.0427 8.98875 17.8013C8.97316 18.5639 9.10619 19.3221 9.38042 20.0338C9.62129 20.5959 10.0149 21.0757 10.5162 21.4242C11.0293 21.7532 11.6305 21.9177 12.2396 21.8942C12.7664 21.9099 13.2892 21.8022 13.7671 21.5809C14.1989 21.3667 14.5544 21.0248 14.7854 20.6017C14.9944 20.2032 15.102 19.7593 15.0988 19.3092H12.3571V17.3509H17.6446L17.5858 18.7609ZM22.4229 23.7351C22.4394 23.7793 22.4394 23.828 22.4229 23.8722H19.9358V11.7109H22.4229C22.4349 11.7491 22.4349 11.7902 22.4229 11.8284V23.7351ZM32.8804 13.5909H27.4558C27.4471 13.6093 27.4426 13.6293 27.4426 13.6497C27.4426 13.67 27.4471 13.69 27.4558 13.7084V16.3326C27.4499 16.3715 27.4499 16.4111 27.4558 16.4501H32.4888V18.6434H27.4558C27.4438 18.6817 27.4438 18.7227 27.4558 18.7609V23.6567H24.9883V11.3976C24.985 11.3762 24.9867 11.3544 24.9934 11.3339C25.0001 11.3133 25.0116 11.2947 25.0268 11.2794C25.0421 11.2641 25.0608 11.2527 25.0813 11.246C25.1018 11.2393 25.1237 11.2376 25.145 11.2409H32.8804V13.5909Z" fill="#385CFF"/>
</svg>
